<svg id="Capa_1" data-name="Capa 1" xmlns="http://www.w3.org/2000/svg" viewBox="0 0 703 449"><defs><style>.cls-1{fill:#3c63ab;}.cls-2{fill:#eb673a;}.cls-3{fill:#eb6639;}.cls-4{fill:#3e63ab;}</style></defs><title>DPX logo short</title><path class="cls-1" d="M307.51,182.24a201.67,201.67,0,0,1,33.4-2.6c17.2,0,29.8,4,37.8,11.2,7.4,6.4,11.8,16.2,11.8,28.2,0,12.2-3.6,21.8-10.4,28.8-9.2,9.8-24.2,14.8-41.2,14.8a59.89,59.89,0,0,1-14-1.2v54h-17.4Zm17.4,65a58.35,58.35,0,0,0,14.4,1.4c21,0,33.8-10.2,33.8-28.8,0-17.8-12.6-26.4-31.8-26.4-7.6,0-13.4.6-16.4,1.4Z"/><path class="cls-2" d="M127.74,132.79a352.12,352.12,0,0,1,52.17-3.95c35.25,0,60.34,8.18,77,23.69C273.81,168,283.68,190,283.68,220.77c0,31-9.59,56.4-27.35,73.89-17.77,17.76-47.09,27.35-84,27.35a393.5,393.5,0,0,1-44.55-2.26Zm24.53,168.07c6.21,1.13,15.23,1.41,24.82,1.41,52.45,0,80.93-29.33,80.93-80.65.28-44.84-25.1-73.32-77-73.32-12.69,0-22.28,1.13-28.77,2.54Z"/><path class="cls-3" d="M487.91,275.87l-49.78-49.78,49.78-49.78,49.78,49.78Zm-47-49.78,47,47,46.95-47-46.95-47Z"/><rect class="cls-4" x="484.76" y="99.12" width="7" height="255.41" transform="translate(-17.38 411.69) rotate(-45)"/><path class="cls-2" d="M602.72,137.93l-46.07,20.7V148.19a88.67,88.67,0,0,0-13.26,5.16c-27,13.11-43.29,37.92-48.34,73.74-7.23,51.24-34.94,74.49-56.91,85a108.3,108.3,0,0,1-44.67,10.4c-1,0-1.65,0-1.8,0l.69-14.39a93.68,93.68,0,0,0,40.1-9.23c27-13.11,43.27-37.92,48.34-73.74,7.23-51.25,34.94-74.49,56.9-85a106,106,0,0,1,18.92-6.87V121.68l22.95,8.08,4.54,1.6Z"/></svg>