<svg id="Capa_1" data-name="Capa 1" xmlns="http://www.w3.org/2000/svg" viewBox="0 0 902 426"><defs><style>.cls-1{fill:#eb673a;}.cls-2{fill:#eb6639;}.cls-3{fill:#3c63ab;}.cls-4{fill:#3e63ab;}.cls-5{fill:none;}</style></defs><title>DPX logo</title><path class="cls-1" d="M121.23,132.14a292.78,292.78,0,0,1,43.47-3.29c29.38,0,50.29,6.81,64.16,19.74,14.1,12.92,22.32,31.25,22.32,56.87,0,25.85-8,47-22.79,61.57-14.81,14.8-39.25,22.79-70,22.79a328.82,328.82,0,0,1-37.13-1.88ZM141.67,272.2c5.17.94,12.69,1.17,20.68,1.17,43.71,0,67.45-24.44,67.45-67.21.23-37.36-20.92-61.1-64.16-61.1a115.82,115.82,0,0,0-24,2.12Z"/><path class="cls-2" d="M158.36,290.07a332.81,332.81,0,0,1-37.16-1.88l-.22,0V131.92l.21,0a291.93,291.93,0,0,1,43.51-3.29c29,0,50,6.48,64.33,19.8,14.86,13.63,22.4,32.83,22.4,57.06,0,25.67-7.91,47-22.87,61.75C213.6,282.16,189.33,290.07,158.36,290.07Zm-36.88-2.35a333.24,333.24,0,0,0,36.88,1.85c30.83,0,55-7.85,69.85-22.72,14.87-14.63,22.72-35.86,22.72-61.39,0-24.09-7.48-43.16-22.24-56.69-14.2-13.24-35.13-19.67-64-19.67a291.92,291.92,0,0,0-43.22,3.25Zm40.87-14.1c-9.71,0-16.3-.37-20.72-1.18l-.21,0V147l.2,0c4.45-1,12.23-2.12,24-2.12,21.27,0,37.67,5.66,48.76,16.81,10.5,10.57,15.77,25.56,15.65,44.54,0,21.45-5.86,38.21-17.41,49.82S184.08,273.62,162.35,273.62ZM141.92,272c5.78,1,14.41,1.13,20.43,1.13,21.59,0,38.39-5.88,49.94-17.49s17.26-28.15,17.26-49.47c.12-18.85-5.1-33.71-15.51-44.19-11-11.05-27.27-16.66-48.4-16.66a115.24,115.24,0,0,0-23.72,2.07Z"/><path class="cls-1" d="M273.55,238.81a4.36,4.36,0,0,1-8.72,0,4.29,4.29,0,0,1,4.4-4.4A4.18,4.18,0,0,1,273.55,238.81Zm-7.84,49.6V249.69h7v38.72Z"/><path class="cls-1" d="M310.35,288.41V255.05H294.11v33.36h-7V255.05h-5.44v-5.36h5.44v-1.28c0-5.44,1.28-10.16,4.32-13.2,2.24-2.24,5.44-3.6,9.76-3.6a12.39,12.39,0,0,1,5.52,1.36l-1.44,5.2a10.29,10.29,0,0,0-4.16-1c-5.52,0-7,4.72-7,10.8v1.68h16.24v-1.84c0-5.44,1.28-10.4,4.56-13.52a13.42,13.42,0,0,1,9.36-3.6,16,16,0,0,1,6,1.12l-.88,5.44a10.93,10.93,0,0,0-4.56-.88c-5.92,0-7.52,5.28-7.52,11.2v2.08h9.36v5.36h-9.28v33.36Z"/><path class="cls-1" d="M338.27,270.33c.16,9.52,6.24,13.44,13.28,13.44a25.46,25.46,0,0,0,10.72-2l1.2,5a31.36,31.36,0,0,1-12.88,2.4c-11.92,0-19-7.84-19-19.52s6.88-20.88,18.16-20.88c12.64,0,16,11.12,16,18.24a26.55,26.55,0,0,1-.24,3.28Zm20.64-5c.08-4.48-1.84-11.44-9.76-11.44-7.12,0-10.24,6.56-10.8,11.44Z"/><path class="cls-1" d="M376.43,261.77c0-4.56-.08-8.48-.32-12.08h6.16l.24,7.6h.32c1.76-5.2,6-8.48,10.72-8.48a7.61,7.61,0,0,1,2,.24v6.64a10.58,10.58,0,0,0-2.4-.24c-5,0-8.48,3.76-9.44,9a19.82,19.82,0,0,0-.32,3.28v20.64h-7Z"/><path class="cls-1" d="M407.71,270.33c.16,9.52,6.24,13.44,13.28,13.44a25.46,25.46,0,0,0,10.72-2l1.2,5a31.36,31.36,0,0,1-12.88,2.4c-11.92,0-19-7.84-19-19.52s6.88-20.88,18.16-20.88c12.64,0,16,11.12,16,18.24a26.55,26.55,0,0,1-.24,3.28Zm20.64-5c.08-4.48-1.84-11.44-9.76-11.44-7.12,0-10.24,6.56-10.8,11.44Z"/><path class="cls-1" d="M445.87,260.17c0-4-.08-7.28-.32-10.48h6.24l.4,6.4h.16a14.24,14.24,0,0,1,12.8-7.28c5.36,0,13.68,3.2,13.68,16.48v23.12h-7V266.09c0-6.24-2.32-11.44-9-11.44a10,10,0,0,0-9.44,7.2,10.12,10.12,0,0,0-.48,3.28v23.28h-7Z"/><path class="cls-1" d="M500.43,238.57v11.12h10.08v5.36H500.43v20.88c0,4.8,1.36,7.52,5.28,7.52a15.66,15.66,0,0,0,4.08-.48l.32,5.28a17.23,17.23,0,0,1-6.24,1c-3.28,0-5.92-1-7.6-3-2-2.08-2.72-5.52-2.72-10.08V255.05h-6v-5.36h6v-9.28Z"/><path class="cls-1" d="M528.27,238.81a4.36,4.36,0,0,1-8.72,0,4.29,4.29,0,0,1,4.4-4.4A4.18,4.18,0,0,1,528.27,238.81Zm-7.84,49.6V249.69h7v38.72Z"/><path class="cls-1" d="M562.59,288.41l-.56-4.88h-.24A14.42,14.42,0,0,1,550,289.29c-7.84,0-11.84-5.52-11.84-11.12,0-9.36,8.32-14.48,23.28-14.4V263c0-3.2-.88-9-8.8-9a19.29,19.29,0,0,0-10.08,2.88l-1.6-4.64a24,24,0,0,1,12.72-3.44c11.84,0,14.72,8.08,14.72,15.84v14.48a54.52,54.52,0,0,0,.64,9.28Zm-1-19.76c-7.68-.16-16.4,1.2-16.4,8.72,0,4.56,3,6.72,6.64,6.72a9.63,9.63,0,0,0,9.36-6.48,7.35,7.35,0,0,0,.4-2.24Z"/><path class="cls-1" d="M581.71,231.61h7v56.8h-7Z"/><path class="cls-3" d="M265.06,146.09a111.15,111.15,0,0,1,18.38-1.43c9.46,0,16.39,2.2,20.79,6.16,4.07,3.52,6.49,8.91,6.49,15.51s-2,12-5.72,15.84c-5.06,5.39-13.31,8.14-22.66,8.14a32.89,32.89,0,0,1-7.7-.66v29.7h-9.58Zm9.58,35.75a32.09,32.09,0,0,0,7.92.77c11.55,0,18.59-5.61,18.59-15.84,0-9.79-6.93-14.52-17.49-14.52a40.16,40.16,0,0,0-9,.77Z"/><path class="cls-4" d="M274.89,219.6H264.81V145.88l.21,0a112.85,112.85,0,0,1,18.42-1.43c9.31,0,16.36,2.09,20.95,6.22,4.24,3.67,6.58,9.24,6.58,15.7,0,6.67-2,12.06-5.8,16-5,5.3-13.08,8.22-22.83,8.22a35.37,35.37,0,0,1-7.45-.6Zm-9.58-.5h9.08V189.33l.31.07a33.09,33.09,0,0,0,7.64.66c9.61,0,17.59-2.87,22.47-8.06,3.75-3.87,5.66-9.14,5.66-15.67,0-6.31-2.28-11.75-6.41-15.32-4.5-4-11.44-6.1-20.62-6.1a112.9,112.9,0,0,0-18.13,1.39Zm17.25-36.24a32.48,32.48,0,0,1-8-.78l-.18-.05v-29.2l.18-.05a40.88,40.88,0,0,1,9.09-.78c11.27,0,17.74,5.38,17.74,14.77C301.4,177,294.53,182.86,282.56,182.86Zm-7.67-1.22a32.51,32.51,0,0,0,7.67.72c11.65,0,18.34-5.68,18.34-15.59,0-9.21-6.13-14.27-17.24-14.27a42.06,42.06,0,0,0-8.77.71Z"/><path class="cls-3" d="M351,202.13c0,12.53-8.68,18-16.87,18-9.17,0-16.25-6.72-16.25-17.43,0-11.35,7.43-18,16.81-18C344.42,184.69,351,191.76,351,202.13Zm-26.88.35c0,7.42,4.27,13,10.29,13S344.7,210,344.7,202.34c0-5.74-2.87-13-10.15-13S324.12,196,324.12,202.48Z"/><path class="cls-3" d="M365.49,185.46,370,202.69c1,3.78,1.89,7.28,2.52,10.78h.21c.77-3.43,1.89-7.07,3-10.71l5.53-17.3h5.18l5.25,16.95c1.26,4.06,2.24,7.63,3,11.06h.21a101.88,101.88,0,0,1,2.59-11l4.83-17h6.09l-10.92,33.89h-5.6l-5.18-16.17a112.36,112.36,0,0,1-3-11.14h-.14a99.84,99.84,0,0,1-3.08,11.21L375,219.35h-5.6l-10.22-33.89Z"/><path class="cls-3" d="M422.05,203.53c.14,8.33,5.46,11.76,11.62,11.76a22.28,22.28,0,0,0,9.38-1.75L444.1,218a27.44,27.44,0,0,1-11.27,2.1c-10.43,0-16.66-6.86-16.66-17.08s6-18.28,15.89-18.28c11.06,0,14,9.73,14,16a23.23,23.23,0,0,1-.21,2.87Zm18.06-4.41c.07-3.92-1.61-10-8.54-10-6.23,0-9,5.75-9.45,10Z"/><path class="cls-3" d="M458.45,196c0-4-.07-7.43-.28-10.58h5.39l.21,6.65h.28c1.54-4.55,5.25-7.42,9.38-7.42a6.66,6.66,0,0,1,1.75.21v5.81a9.25,9.25,0,0,0-2.1-.21c-4.34,0-7.42,3.29-8.26,7.92a17.34,17.34,0,0,0-.28,2.87v18.06h-6.09Z"/><path class="cls-2" d="M681.46,250.85l-41.72-41.72,41.72-41.71,41.72,41.71Zm-38.89-41.72L681.46,248l38.89-38.9-38.89-38.89Z"/><rect class="cls-4" x="678.25" y="103.33" width="7" height="212.84" transform="translate(51.36 543.5) rotate(-45)"/><line class="cls-5" x1="742" y1="122" x2="739" y2="121"/><path class="cls-1" d="M777.13,135.67l-38.39,17.25v-8.7a74.79,74.79,0,0,0-11.05,4.3c-22.51,10.93-36.07,31.6-40.28,61.45-6,42.7-29.12,62.08-47.43,70.81a90.29,90.29,0,0,1-37.22,8.67c-.87,0-1.38,0-1.5,0l.57-12a78.09,78.09,0,0,0,33.42-7.69c22.51-10.93,36.06-31.6,40.28-61.45,6-42.71,29.12-62.08,47.42-70.81a88.44,88.44,0,0,1,15.77-5.73v-9.63l19.12,6.73,3.79,1.34Z"/></svg>